{"title":"Sympathy.for.Mr.Vengeance.2002.720p.BluRay.x264.DTS-WiKi","uid":6827211,"size":5899681435,"categoryP":"video","categoryS":"hd___movies","magnet":"?xt=urn:btih:0c2fac31553bc117c5e548238cd9da6497144df6&amp;dn=Sympathy.for.Mr.Vengeance.2002.720p.BluRay.x264.DTS-WiKi&amp;tr=udp%3A%2F%2Ftracker.openbittorrent.com%3A80&amp;tr=udp%3A%2F%2Fopen.demonii.com%3A1337&amp;tr=udp%3A%2F%2Ftracker.coppersurfer.tk%3A6969&amp;tr=udp%3A%2F%2Fexodus.desync.com%3A6969","seeders":6,"leechers":1,"uploader":"mfccorrea","files":5,"time":1321622426,"description":"Korean director Park Chan-wook followed up his highly acclaimed Joint Security Area with this tale of a deaf mute named Ryu (Shin Ha-kyun) trying to help his sister (Lim Ji-Eun) get a kidney transplant. Because his blood type is incompatible and no donors are available, he turns to a group of black-market organ dealers who offer to find one in return for one of his and ten million won. The dealers rip him off, so Ryu conspires with his girlfriend, a political activist, to kidnap his former boss' young daughter and ransom her for the ten million won. But a horrible complication ruins their plans and things begin to spiral out of control as the girl's father (Song Kang-ho) decides to take matters into his own hands with the help of a sympathetic cop.\n\n\n   General\n      Complete name :Sympathy.for.Mr.Vengeance.2002.720p.BluRay.x264.DTS-WiKi.mkv\n      Format : Matroska\n      File size : 5.49 GiB\n      Duration : 2h 1mn\n      Overall bit rate : 6 499 Kbps\n      Encoded date : UTC 2011-08-19 02:59:57\n      Writing application : mkvmerge v2.2.0 ('Turn It On Again') built on Mar  4 2008 13:20:25\n      Writing library : libebml v0.7.7 + libmatroska v0.8.1\n   Video #1\n      ID : 1\n      Format : AVC\n      Format/Info : Advanced Video Codec\n      Format profile : &lt;a class=&quot;__cf_email__&quot; href=&quot;/cdn-cgi/l/email-protection&quot; data-cfemail=&quot;a0e8c9c7c8e0ec948e91&quot;&gt;[email&amp;#160;protected]&lt;/a&gt;&lt;script cf-hash='f9e31' type=&quot;text/javascript&quot;&gt;\n/* &lt;![CDATA[ */!function(){try{var t=&quot;currentScript&quot;in document?document.currentScript:function(){for(var t=document.getElementsByTagName(&quot;script&quot;),e=t.length;e--;)if(t[e].getAttribute(&quot;cf-hash&quot;))return t[e]}();if(t&amp;&amp;t.previousSibling){var e,r,n,i,c=t.previousSibling,a=c.getAttribute(&quot;data-cfemail&quot;);if(a){for(e=&quot;&quot;,r=parseInt(a.substr(0,2),16),n=2;a.length-n;n+=2)i=parseInt(a.substr(n,2),16)^r,e+=String.fromCharCode(i);e=document.createTextNode(e),c.parentNode.replaceChild(e,c)}}}catch(u){}}();/* ]]&gt; */&lt;/script&gt;\n      Format settings, CABAC : Yes\n      Format settings, ReFrames : 8 frames\n      Muxing mode : Container profile=&lt;a class=&quot;__cf_email__&quot; href=&quot;/cdn-cgi/l/email-protection&quot; data-cfemail=&quot;1f4a7174717068715f2b312e&quot;&gt;[email&amp;#160;protected]&lt;/a&gt;&lt;script cf-hash='f9e31' type=&quot;text/javascript&quot;&gt;\n/* &lt;![CDATA[ */!function(){try{var t=&quot;currentScript&quot;in document?document.currentScript:function(){for(var t=document.getElementsByTagName(&quot;script&quot;),e=t.length;e--;)if(t[e].getAttribute(&quot;cf-hash&quot;))return t[e]}();if(t&amp;&amp;t.previousSibling){var e,r,n,i,c=t.previousSibling,a=c.getAttribute(&quot;data-cfemail&quot;);if(a){for(e=&quot;&quot;,r=parseInt(a.substr(0,2),16),n=2;a.length-n;n+=2)i=parseInt(a.substr(n,2),16)^r,e+=String.fromCharCode(i);e=document.createTextNode(e),c.parentNode.replaceChild(e,c)}}}catch(u){}}();/* ]]&gt; */&lt;/script&gt;\n      Codec ID : V_MPEG4/ISO/AVC\n      Duration : 2h 0mn\n      Bit rate : 4 860 Kbps\n      Nominal bit rate : 4 988 Kbps\n      Width : 1 280 pixels\n      Height : 544 pixels\n      Display aspect ratio : 2.35:1\n      Frame rate : 23.976 fps\n      Resolution : 24 bits\n      Colorimetry : 4:2:0\n      Scan type : Progressive\n      Bits/(Pixel*Frame) : 0.291\n      Stream size : 4.10 GiB (75%)\n      Writing library : x264 core 98 r1649 c54c47d     \n   Audio #2\n      ID : 2\n      Format : DTS\n      Format/Info : Digital Theater Systems\n      Codec ID : A_DTS\n      Duration : 2h 1mn\n      Bit rate mode : Constant\n      Bit rate : 1 510 Kbps\n      Channel(s) : 6 channels\n      Channel positions : Front: L C R, Surround: L R, LFE\n      Sampling rate : 48.0 KHz\n      Resolution : 24 bits\n      Stream size : 1.28 GiB (23%) \n      Language : Korean\n &lt;a href=&quot;\nhttp://www.imdb.com/title/tt0310775/&quot; rel=&quot;nofollow&quot; target=&quot;_NEW&quot;&gt;\nhttp://www.imdb.com/title/tt0310775/&lt;/a&gt;\n\nLanguage: Korean\nSubtitles: English, Chinese and Portuguese","torrent":{"xt":"urn:btih:0c2fac31553bc117c5e548238cd9da6497144df6","amp;dn":"Sympathy.for.Mr.Vengeance.2002.720p.BluRay.x264.DTS-WiKi","amp;tr":["udp%3A%2F%2Ftracker.openbittorrent.com%3A80","udp%3A%2F%2Fopen.demonii.com%3A1337","udp%3A%2F%2Ftracker.coppersurfer.tk%3A6969","udp%3A%2F%2Fexodus.desync.com%3A6969"],"infoHash":"0c2fac31553bc117c5e548238cd9da6497144df6","infoHashBuffer":{"type":"Buffer","data":[12,47,172,49,85,59,193,23,197,229,72,35,140,217,218,100,151,20,77,246]},"announce":[],"urlList":[]}}